# xmcd
# 
# Track frame offsets:
#     150
#     18720
#     32542
#     49077
#     68062
#     95070
#     115877
#     128212
#     143822
#     170127
#     183867
#     209135
#     225117
#     239572
#     254735
#     275497
#     282437
# 
# Disc length: 3970
# 
# Revision: 10
# Processed by: cddbd v1.5.2PL0 Copyright (c) Steve Scherf et al.
# Submitted via: fre:ac v1.0.31
# 
DISCID=060f8011
DTITLE=The Band - The Last Waltz [CD2)
DYEAR=1978
DGENRE=Rock
TTITLE0=The Shape I'm In
TTITLE1=Down South In New Orleans (With Bobby Charles)
TTITLE2=Ophelia
TTITLE3=Tura Lura Lural (That's An Irish Lullaby) (With Van Morrison)
TTITLE4=Caravan (With Van Morrison)
TTITLE5=Life Is a Carnival
TTITLE6=Baby Let Me Follow You Down (With Bob Dylan)
TTITLE7=I Don't Believe You (She Acts Like We Never Have Met) (With Bob Dylan)
TTITLE8=Forever Young (With Bob Dylan)
TTITLE9=Baby Let Me Follow You Down (Reprise) (With Bob Dylan)
TTITLE10=I Shall Be Released (Finale)
TTITLE11=The Well
TTITLE12=Evangeline (With Emmylou Harris)
TTITLE13=Out of the Blue
TTITLE14=The Weight (With The Staples)
TTITLE15=The Last Waltz Refrain
TTITLE16=Theme From The Last Waltz (With Orchestra)
EXTD=YEAR: 1978
EXTT0=
EXTT1=
EXTT2=
EXTT3=
EXTT4=
EXTT5=
EXTT6=
EXTT7=
EXTT8=
EXTT9=
EXTT10=
EXTT11=
EXTT12=
EXTT13=
EXTT14=
EXTT15=
EXTT16=
PLAYORDER=
